<svg xmlns="http://www.w3.org/2000/svg" width="48" height="48" viewBox="0 0 48 48" fill="none">
<path d="M23.6 26H30C30.5667 26 31.042 25.808 31.426 25.424C31.81 25.04 32.0013 24.5653 32 24C32 23.4333 31.808 22.958 31.424 22.574C31.04 22.19 30.5653 21.9987 30 22H23.6L25.4 20.2C25.7667 19.8333 25.95 19.3667 25.95 18.8C25.95 18.2333 25.7667 17.7667 25.4 17.4C25.0333 17.0333 24.5667 16.85 24 16.85C23.4333 16.85 22.9667 17.0333 22.6 17.4L17.4 22.6C17 23 16.8 23.4667 16.8 24C16.8 24.5333 17 25 17.4 25.4L22.6 30.6C22.9667 30.9667 23.4333 31.15 24 31.15C24.5667 31.15 25.0333 30.9667 25.4 30.6C25.7667 30.2333 25.95 29.7667 25.95 29.2C25.95 28.6333 25.7667 28.1667 25.4 27.8L23.6 26ZM24 44C21.2333 44 18.6333 43.4747 16.2 42.424C13.7667 41.3733 11.65 39.9487 9.85 38.15C8.05 36.35 6.62533 34.2333 5.576 31.8C4.52667 29.3667 4.00133 26.7667 4 24C4 21.2333 4.52533 18.6333 5.576 16.2C6.62667 13.7667 8.05133 11.65 9.85 9.85C11.65 8.05 13.7667 6.62533 16.2 5.576C18.6333 4.52667 21.2333 4.00133 24 4C26.7667 4 29.3667 4.52533 31.8 5.576C34.2333 6.62667 36.35 8.05133 38.15 9.85C39.95 11.65 41.3753 13.7667 42.426 16.2C43.4767 18.6333 44.0013 21.2333 44 24C44 26.7667 43.4747 29.3667 42.424 31.8C41.3733 34.2333 39.9487 36.35 38.15 38.15C36.35 39.95 34.2333 41.3753 31.8 42.426C29.3667 43.4767 26.7667 44.0013 24 44ZM24 40C28.4667 40 32.25 38.45 35.35 35.35C38.45 32.25 40 28.4667 40 24C40 19.5333 38.45 15.75 35.35 12.65C32.25 9.55 28.4667 8 24 8C19.5333 8 15.75 9.55 12.65 12.65C9.55 15.75 8 19.5333 8 24C8 28.4667 9.55 32.25 12.65 35.35C15.75 38.45 19.5333 40 24 40Z" fill="#CCCCCC"/>
</svg>