<?xml version="1.0" encoding="iso-8859-1"?>
<!-- Generator: Adobe Illustrator 19.0.0, SVG Export Plug-In . SVG Version: 6.00 Build 0)  -->
<svg version="1.1" id="Capa_1" xmlns="http://www.w3.org/2000/svg" xmlns:xlink="http://www.w3.org/1999/xlink" x="0px" y="0px"
	 viewBox="0 0 512 512" style="enable-background:new 0 0 512 512;" xml:space="preserve">
<g>
	<g>
		<path style="fill:#A4C2F7;" d="M187.733,434.859c11.799,28.613,39.695,47.28,70.645,47.275c30.95-0.006,58.839-18.683,70.628-47.3
			C282.134,441.252,234.607,441.26,187.733,434.859z"/>
		<path style="fill:#A4C2F7;" d="M137.813,427.848c91.315,15.764,142.153,15.763,233.468-0.001l80.985-13.981l0,0
			c-39.79-37.772-62.357-90.204-62.439-145.067V192c-0.246-45.202-26.699-86.155-67.803-104.965
			c-42.84-19.547-92.058-19.523-134.88,0.064c-33.74,15.556-70.266,53.345-70.592,104.9v76.8
			c0.929,54.521-20.684,107.008-59.733,145.067l0,0L137.813,427.848z"/>
	</g>
	
		<linearGradient id="SVGID_1_" gradientUnits="userSpaceOnUse" x1="-48.7581" y1="652.36" x2="-47.971" y2="651.587" gradientTransform="matrix(360.7253 0 0 -367.2786 17689.6621 239766.2656)">
		<stop  offset="0" style="stop-color:#D4E1F4"/>
		<stop  offset="0.1717" style="stop-color:#D4E1F4"/>
		<stop  offset="0.2" style="stop-color:#D4E1F4"/>
		<stop  offset="0.2001" style="stop-color:#DAE4F4"/>
		<stop  offset="0.2007" style="stop-color:#EBEBF4"/>
		<stop  offset="0.2014" style="stop-color:#F6F1F4"/>
		<stop  offset="0.2023" style="stop-color:#FDF4F4"/>
		<stop  offset="0.205" style="stop-color:#FFF5F4"/>
		<stop  offset="0.2522" style="stop-color:#FFF5F4"/>
		<stop  offset="0.26" style="stop-color:#FFF5F4"/>
		<stop  offset="0.26" style="stop-color:#D4E1F4"/>
		<stop  offset="0.3974" style="stop-color:#D4E1F4"/>
		<stop  offset="0.42" style="stop-color:#D4E1F4"/>
		<stop  offset="0.4201" style="stop-color:#DAE4F4"/>
		<stop  offset="0.4207" style="stop-color:#EBEBF4"/>
		<stop  offset="0.4214" style="stop-color:#F6F1F4"/>
		<stop  offset="0.4223" style="stop-color:#FDF4F4"/>
		<stop  offset="0.425" style="stop-color:#FFF5F4"/>
		<stop  offset="0.4894" style="stop-color:#FFF5F4"/>
		<stop  offset="0.5" style="stop-color:#FFF5F4"/>
		<stop  offset="0.5" style="stop-color:#F9F2F4"/>
		<stop  offset="0.5001" style="stop-color:#E8EBF4"/>
		<stop  offset="0.5003" style="stop-color:#DDE5F4"/>
		<stop  offset="0.5005" style="stop-color:#D6E2F4"/>
		<stop  offset="0.501" style="stop-color:#D4E1F4"/>
		<stop  offset="0.7062" style="stop-color:#D4E1F4"/>
		<stop  offset="0.74" style="stop-color:#D4E1F4"/>
		<stop  offset="0.741" style="stop-color:#FFF5F4"/>
		<stop  offset="0.8346" style="stop-color:#FFF5F4"/>
		<stop  offset="0.85" style="stop-color:#FFF5F4"/>
		<stop  offset="0.851" style="stop-color:#D4E1F4"/>
	</linearGradient>
	<path style="fill:url(#SVGID_1_);" d="M144.021,427.848c91.315,15.764,107.431,15.763,198.746-0.001l80.985-13.981l0,0
		c-39.79-37.772-62.357-90.204-62.439-145.067V192c-0.246-45.202-26.699-86.155-67.803-104.965
		c-42.66-19.496-57.563-19.574-100.158,0.064c-33.74,15.555-70.267,53.345-70.592,104.9v76.8
		c0.929,54.521-20.684,107.008-59.733,145.067l0,0L144.021,427.848z"/>
	<path style="fill:#FFFFFF;" d="M147.771,192v76.8c-0.082,54.863-22.649,107.294-62.438,145.067l3.5,0.604
		c-0.736,1.468-1.12,3.087-1.122,4.729l-30.891-5.333c39.79-37.772,62.357-90.204,62.439-145.067V192
		c0.246-45.202,26.7-86.154,67.803-104.965c22.829-10.342,47.742-15.257,72.789-14.36c-15.457,2.279-30.423,7.133-44.275,14.36
		C174.471,105.845,148.018,146.797,147.771,192z"/>
	<g>
		<path style="fill:#428DFF;" d="M257.458,448.267c-39.67-0.542-79.215-4.561-118.183-12.009l0,0l-80.992-13.983
			c-3.145-0.542-5.725-2.795-6.687-5.838c-0.961-3.044-0.143-6.369,2.12-8.62c37.441-36.456,58.148-86.767,57.217-139.017V192
			c0.341-53.925,38.192-95.425,75.55-112.65c45.055-20.741,96.922-20.768,142-0.075c44.244,20.106,72.69,64.177,72.792,112.775
			v76.75c-0.054,52.62,21.629,102.925,59.921,139.017c2.263,2.251,3.081,5.576,2.12,8.62s-3.541,5.296-6.686,5.838l-80.983,13.983
			C336.676,443.706,297.129,447.725,257.458,448.267L257.458,448.267z M142.175,419.442c90.505,15.617,140.058,15.617,230.571,0
			l65.329-11.283c-34.622-38.162-53.821-87.832-53.867-139.358V192c-0.423-41.81-24.872-79.644-62.817-97.208
			c-40.556-18.615-87.219-18.594-127.758,0.058c-32.458,14.967-65.342,50.825-65.633,97.2v76.75
			c0.906,51.21-17.356,100.91-51.204,139.35L142.175,419.442z"/>
		<path style="fill:#428DFF;" d="M162.133,200.533h-0.054c-4.711-0.031-8.506-3.873-8.479-8.583
			c0.254-39.95,32.021-65.217,50.754-73.85c33.851-15.135,72.544-15.141,106.4-0.017c2.784,1.261,4.681,3.914,4.974,6.956
			c0.292,3.042-1.065,6.008-3.558,7.776c-2.493,1.768-5.741,2.067-8.516,0.784c-29.321-13.1-62.833-13.1-92.154,0
			c-15.075,6.95-40.634,27.075-40.834,58.45C170.639,196.743,166.826,200.533,162.133,200.533L162.133,200.533z"/>
		<path style="fill:#428DFF;" d="M221.866,84.933c-2.264,0.001-4.435-0.898-6.035-2.498s-2.499-3.772-2.498-6.035V64
			c0-23.564,19.103-42.667,42.667-42.667S298.666,40.436,298.666,64v11.783c-0.001,2.563-1.154,4.99-3.14,6.61
			c-1.986,1.62-4.595,2.262-7.106,1.748c-21.361-4.35-43.4-4.151-64.679,0.583C223.126,84.864,222.497,84.934,221.866,84.933
			L221.866,84.933z M256,38.4c-14.132,0.015-25.585,11.468-25.6,25.6v2.083c16.951-2.677,34.206-2.823,51.2-0.433V64
			C281.584,49.868,270.132,38.415,256,38.4L256,38.4z"/>
		<path style="fill:#428DFF;" d="M257.558,490.667c-34.2-0.403-64.949-20.928-78.438-52.358c-1.244-2.815-0.877-6.082,0.962-8.549
			s4.864-3.755,7.917-3.367c46.159,6.342,92.969,6.333,139.125-0.025c3.05-0.364,6.064,0.918,7.917,3.367
			c1.839,2.468,2.207,5.735,0.962,8.55C322.521,469.726,291.767,490.262,257.558,490.667L257.558,490.667z M202.766,445.275
			c12.594,17.771,33.025,28.33,54.806,28.325c21.781-0.005,42.207-10.573,54.794-28.35
			C275.94,449.192,239.195,449.2,202.766,445.275L202.766,445.275z"/>
		<path style="fill:#428DFF;" d="M34.941,336.783c-2.264,0.003-4.435-0.897-6.033-2.5c-38.544-38.623-38.544-101.16,0-139.783
			c2.152-2.171,5.302-3.024,8.256-2.237c2.954,0.787,5.261,3.094,6.048,6.048c0.787,2.954-0.067,6.103-2.238,8.256
			c-31.878,31.96-31.878,83.69,0,115.65c2.44,2.44,3.169,6.11,1.849,9.298C41.503,334.703,38.393,336.782,34.941,336.783
			L34.941,336.783z"/>
		<path style="fill:#428DFF;" d="M70.871,317.358c-2.264,0.003-4.435-0.897-6.033-2.5c-28.479-28.541-28.479-74.75,0-103.292
			c2.152-2.171,5.302-3.024,8.256-2.237c2.954,0.787,5.261,3.094,6.048,6.048c0.787,2.954-0.067,6.103-2.238,8.256
			c-21.825,21.873-21.825,57.285,0,79.158c2.44,2.44,3.169,6.11,1.849,9.298C77.432,315.278,74.322,317.357,70.871,317.358
			L70.871,317.358z"/>
		<path style="fill:#428DFF;" d="M477.058,336.783c-3.451-0.001-6.562-2.08-7.882-5.268c-1.32-3.188-0.591-6.858,1.849-9.298
			c31.878-31.96,31.878-83.69,0-115.65c-3.308-3.336-3.296-8.719,0.026-12.041c3.322-3.322,8.704-3.334,12.041-0.026
			c38.544,38.623,38.544,101.16,0,139.783C481.493,335.886,479.322,336.786,477.058,336.783L477.058,336.783z"/>
		<path style="fill:#428DFF;" d="M441.129,317.358c-3.451-0.001-6.562-2.08-7.882-5.268c-1.32-3.188-0.591-6.858,1.849-9.298
			c21.825-21.873,21.825-57.285,0-79.158c-2.168-2.153-3.019-5.301-2.231-8.253c0.787-2.952,3.093-5.258,6.045-6.045
			c2.952-0.787,6.1,0.064,8.253,2.231c28.479,28.541,28.479,74.75,0,103.292C445.564,316.461,443.393,317.361,441.129,317.358z"/>
	</g>
</g>
<g>
</g>
<g>
</g>
<g>
</g>
<g>
</g>
<g>
</g>
<g>
</g>
<g>
</g>
<g>
</g>
<g>
</g>
<g>
</g>
<g>
</g>
<g>
</g>
<g>
</g>
<g>
</g>
<g>
</g>
</svg>
