<svg id="icons" enable-background="new 0 0 64 64" height="512" viewBox="0 0 64 64" width="512" xmlns="http://www.w3.org/2000/svg"><path d="m62.99 6.5h-61.98v55h62v-55z" fill="#e6e9ed"/><path d="m4.99 10.5h54v38h-54z" fill="#ccd1d9"/><path d="m62.99 6.5h-61.98-.02v-2c0-1.109.9-2 2-2h58c1.109 0 2 .891 2 2z" fill="#ccd1d9"/><path d="m55.02 20.5h4v8h-4z" fill="#5d9cec"/><path d="m36.021 12.001c0-.55.45-1 1-1h2.998c.55 0 1 .45 1 1v.999c0 .55-.45 1-1 1h-2.998c-.55 0-1-.45-1-1z" fill="#e6e9ed"/><path d="m57.542 11.001c.55 0 1 .45 1 1v2c0 .55-.45 1-1 1h-9c-.55 0-1-.45-1-1v-2c0-.55.45-1 1-1z" fill="#e6e9ed"/><path d="m20.029 20.49v.01h-3.009v-10h3z" fill="#656d78"/><path d="m50.02 28.023c.55 0 1 .45 1 1v1.99c0 .55-.45 1-1 1h-2c-.55 0-1-.45-1-1v-1.99c0-.55.45-1 1-1z" fill="#e6e9ed"/><path d="m5.02 10.5h3v10h-3z" fill="#656d78"/><path d="m59.02 33.006v5.01h-4v-4.98-.03z" fill="#e6e9ed"/><path d="m55.02 28.5h4v3.99h-4z" fill="#e6e9ed"/><path d="m55.02 38.016h4v6h-4z" fill="#e6e9ed"/><path d="m26.521 31.986c-.55 0-1 .45-1 1v3.979 2 4c0 .55.45 1 1 1h4.001c.55 0 1-.45 1-1v-4c0-.55 0-1.45 0-2v-3.979c0-.55-.45-1-1-1z" fill="#545c66"/><path d="m52.521 33.006c.275 0 .5.45.5 1v9.01c0 .55-.45 1-1 1h-9.001c-.55 0-1-.45-1-1v-9.01c0-.55.45-1 1-1h3 3.001 2z" fill="#ed5565"/><path d="m55.02 33.006v.03 4.98 6h-3v-11.01z" fill="#da4453"/><path d="m19.021 33.966c.55 0 1 .45 1 1v6c0 .55-.45 1-1 1h-4c-.55 0-1-.45-1-1v-6c0-.55.45-1 1-1z" fill="#965353"/><path d="m6.02 43.966c-.55 0-1-.45-1-1v-9.851c0-.55 0-1.033 0-1.075 0-.041.45-.074 1-.074h1c.55 0 1 .45 1 1v10c0 .55-.45 1-1 1z" fill="#656d78"/><path d="m39.93 14c.061.16.09.32.09.5 0 .83-.67 1.5-1.5 1.5s-1.5-.67-1.5-1.5c0-.18.031-.34.09-.5.201-.58.76-1 1.41-1s1.21.42 1.41 1z" fill="#fff"/><path d="m25.521 37.466h5v1h-5z" fill="#434a54"/><path d="m30.52 31.986c.55 0 1 .45 1 1v9.979c0 .55-.45 1-1 1h-1c-.55 0-1-.45-1-1v-4c0-.55 0-1.45 0-2v-3.979c0-.55.45-1 1-1z" fill="#656d78"/><path d="m4.021 5.5c-.553 0-1.005-.447-1.005-1s.442-1 .994-1h.011c.552 0 1 .447 1 1s-.448 1-1 1z" fill="#e6e9ed"/><path d="m7.021 5.5c-.553 0-1.005-.447-1.005-1s.442-1 .994-1h.011c.552 0 1 .447 1 1s-.448 1-1 1z" fill="#e6e9ed"/><path d="m10.021 5.5c-.553 0-1.005-.447-1.005-1s.442-1 .994-1h.011c.552 0 1 .447 1 1s-.448 1-1 1z" fill="#e6e9ed"/><path d="m53.016 54.5h-42.001c-.553 0-1-.447-1-1s.447-1 1-1h42.001c.553 0 1 .447 1 1s-.448 1-1 1z" fill="#ccd1d9"/><path d="m42.016 57.498h-20.001c-.553 0-1-.447-1-1s.447-1 1-1h20.001c.553 0 1 .447 1 1s-.448 1-1 1z" fill="#ccd1d9"/><g fill="#f5f7fa"><path d="m5.041 48.992c-.276 0-.5-.224-.5-.5v-38c0-.276.224-.5.5-.5s.5.224.5.5v38c0 .277-.224.5-.5.5z"/><path d="m59.041 48.992c-.276 0-.5-.224-.5-.5v-38c0-.276.224-.5.5-.5s.5.224.5.5v38c0 .277-.224.5-.5.5z"/><path d="m32.041 49.008c-.276 0-.5-.224-.5-.5v-15.994c0-.276.224-.5.5-.5s.5.224.5.5v15.994c0 .276-.224.5-.5.5z"/><path d="m43.042 20.99h-11.017c-.276 0-.5-.224-.5-.5s.224-.5.5-.5h11.017c.276 0 .5.224.5.5s-.224.5-.5.5z"/><path d="m11.048 20.99h-6.044c-.276 0-.5-.224-.5-.5s.224-.5.5-.5h6.044c.276 0 .5.224.5.5s-.224.5-.5.5z"/><path d="m59.041 32.986h-20c-.276 0-.5-.224-.5-.5s.224-.5.5-.5h20c.276 0 .5.224.5.5s-.224.5-.5.5z"/><path d="m20.048 20.984c-.276 0-.5-.224-.5-.5l-.005-9.992c0-.276.224-.5.5-.5.276 0 .5.224.5.5l.005 9.992c0 .277-.224.5-.5.5z"/><path d="m32.041 20.99c-.276 0-.5-.224-.5-.5v-9.998c0-.276.224-.5.5-.5s.5.224.5.5v9.998c0 .277-.224.5-.5.5z"/><path d="m24.042 14.992c-.276 0-.5-.224-.5-.5s.224-.5.5-.5c1.93 0 3.5-1.57 3.5-3.5 0-.276.224-.5.5-.5s.5.224.5.5c0 2.482-2.019 4.5-4.5 4.5z"/><path d="m24.042 14.992c-.276 0-.5-.224-.5-.5l.001-4c0-.276.224-.5.5-.5.276 0 .5.224.5.5l-.001 4c0 .277-.224.5-.5.5z"/><path d="m43.042 24.992c-.276 0-.5-.224-.5-.5s.224-.5.5-.5c1.93 0 3.5-1.57 3.5-3.5 0-.276.224-.5.5-.5s.5.224.5.5c0 2.482-2.019 4.5-4.5 4.5z"/><path d="m43.042 24.992c-.276 0-.5-.224-.5-.5v-4c0-.276.224-.5.5-.5s.5.224.5.5v4c0 .277-.224.5-.5.5z"/><path d="m35.041 36.992c-.276 0-.5-.224-.5-.5s.224-.5.5-.5c1.93 0 3.5-1.57 3.5-3.5 0-.276.224-.5.5-.5s.5.224.5.5c0 2.482-2.019 4.5-4.5 4.5z"/><path d="m35.041 36.992c-.276 0-.5-.224-.5-.5v-4c0-.276.224-.5.5-.5s.5.224.5.5v4c0 .277-.224.5-.5.5z"/><path d="m11.042 24.992c-.276 0-.5-.224-.5-.5s.224-.5.5-.5c1.93 0 3.5-1.57 3.5-3.5 0-.276.224-.5.5-.5s.5.224.5.5c0 2.482-2.019 4.5-4.5 4.5z"/><path d="m11.042 24.992c-.276 0-.5-.224-.5-.5l.001-4c0-.276.224-.5.5-.5.276 0 .5.224.5.5l-.001 4c0 .277-.224.5-.5.5z"/><path d="m24.043 10.992h-19.002c-.276 0-.5-.224-.5-.5s.224-.5.5-.5h19.002c.276 0 .5.224.5.5s-.224.5-.5.5z"/><path d="m59.041 10.992h-31.001c-.276 0-.5-.224-.5-.5s.224-.5.5-.5h31.001c.276 0 .5.224.5.5s-.224.5-.5.5z"/><path d="m20.048 20.992h-5.006c-.276 0-.5-.224-.5-.5s.224-.5.5-.5h5.006c.276 0 .5.224.5.5s-.224.5-.5.5z"/><path d="m35.042 48.992h-5.996c-.276 0-.5-.224-.5-.5s.224-.5.5-.5h5.996c.276 0 .5.224.5.5s-.224.5-.5.5z"/><path d="m59.041 48.992h-3.001c-.276 0-.5-.224-.5-.5s.224-.5.5-.5h3.001c.276 0 .5.224.5.5s-.224.5-.5.5z"/><path d="m53.04 48.992h-14.998c-.276 0-.5-.224-.5-.5s.224-.5.5-.5h14.998c.276 0 .5.224.5.5s-.224.5-.5.5z"/><path d="m8.04 48.992h-3.001c-.276 0-.5-.224-.5-.5s.224-.5.5-.5h3.001c.276 0 .5.224.5.5s-.224.5-.5.5z"/><path d="m26.038 48.992h-14.998c-.276 0-.5-.224-.5-.5s.224-.5.5-.5h14.998c.276 0 .5.224.5.5s-.224.5-.5.5z"/><path d="m59.041 20.992h-11.999c-.276 0-.5-.224-.5-.5s.224-.5.5-.5h11.999c.276 0 .5.224.5.5s-.224.5-.5.5z"/><path d="m35.041 32.992h-3c-.276 0-.5-.224-.5-.5s.224-.5.5-.5h3c.276 0 .5.224.5.5s-.224.5-.5.5z"/></g><path d="m55.02 37.516h3.521v1h-3.521z" fill="#ccd1d9"/></svg>