<svg id="icons" enable-background="new 0 0 64 64" height="512" viewBox="0 0 64 64" width="512" xmlns="http://www.w3.org/2000/svg"><path d="m57.01 60.005-4 2-2-2 2-2z" fill="#ffd2a6"/><path d="m53.01 62.005h-30v-4h30l-2 2z" fill="#ffce54"/><path d="m18.012 58.005c.55 0 1 .45 1 1v2c0 .55-.45 1-1 1h-4.002c-.55 0-1-.45-1-1v-2c0-.55.45-1 1-1z" fill="#ec87c0"/><path d="m20.01 58.005h3v4h-3-3v-4z" fill="#ccd1d9"/><path d="m6 51.995v10c-2.76 0-5-2.24-5-5s2.24-5 5-5z" fill="#4a89dc"/><path d="m58 41.995v-30h-52c-2.76 0-5 2.24-5 5v40c0-2.76 2.24-5 5-5h52c2.76 0 5-2.24 5-5s-2.24-5-5-5z" fill="#5d9cec"/><path d="m63 6.995v40c0-2.76-2.24-5-5-5v-30-10c2.76 0 5 2.24 5 5z" fill="#87bcf4"/><path d="m50.023 16.478h-3.94c-.021-.003-.038-.012-.059-.012s-.038.009-.059.012h-34.928c-.276 0-.5.224-.5.5v9.813c-.022.058-.037.119-.037.185s.015.127.037.185v19.8c0 .004-.002.007-.002.01 0 .276.224.5.5.5h3.002c.276 0 .5-.224.5-.5s-.224-.5-.5-.5h-2.5v-3h2.5c.276 0 .5-.224.5-.5 0-.025-.011-.048-.015-.073.004-.024.015-.047.015-.072v-11.854c0-.276-.224-.5-.5-.5h-2.5v-2.996h11.514c.276 0 .5-.224.5-.5 0-.018-.008-.032-.01-.049l-.004-9.449h21.987v12.992l-2.454.004c-.016-.002-.03-.01-.047-.01s-.031.008-.048.01l-7.833.011c-.034-.008-.065-.021-.101-.021h-.001c-.036 0-.068.014-.103.021l-4.91.007h-6.999c-.276 0-.5.224-.5.5v11.978c0 .276.224.5.5.5h6.5v3.001h-2.494c-.276 0-.5.224-.5.5s.224.5.5.5h2.917c.026.004.05.016.077.016s.051-.012.077-.016h2.925c.276 0 .5-.224.5-.5s-.224-.5-.5-.5h-2.502v-3.481c0-.007.004-.013.004-.02s-.004-.013-.004-.02v-11.46l4.011-.005-.015 10.483v.001c0 .193.112.355.272.438.012.006.021.017.032.022.021.008.043.007.064.013.042.012.084.026.13.026h.001 14.498v4h-2.502c-.276 0-.5.224-.5.5s.224.5.5.5h3.002c.276 0 .5-.224.5-.5v-29.99c.002-.277-.221-.5-.498-.5zm-30.486 9.998h-5v-8.998h5z" fill="#e6e9ed"/><path d="m20.01 58.005h-.996v.002c0 .553.447 1 1 1s1-.447 1-1v-.002z" fill="#aab2bd"/><path d="m20.014 61c-.553 0-1 .447-1 1v.005h.996 1.004v-.005c0-.553-.448-1-1-1z" fill="#aab2bd"/><g fill="#87bcf4"><path d="m43.523 31.473h1.998v9.997h-1.998z"/><path d="m46.521 31.467h3.002v4.005h-3.002z"/><path d="m11.537 31.472h2v10.998h-2z"/><path d="m11.537 17.478h2v8.998h-2z"/><path d="m20.537 17.478h2.004v8.998h-2.004z"/><path d="m46.524 17.478h2.999v8.993h-2.999z"/><path d="m46.524 27.471h2.999v2.994h-2.999z"/><path d="m23.529 37.469h3.006v5h-3.006z"/><path d="m23.529 31.491h3.006v4.978h-3.006z"/><path d="m27.535 31.491h1.994v10.978h-1.994z"/><path d="m42.523 31.475v9.995h-6.997l.014-9.987z"/><path d="m46.521 36.47h3.002v5h-3.002z"/></g><path d="m44.021 46.47h-7.99c-.276 0-.5.224-.5.5s.224.5.5.5h7.99c.276 0 .5-.224.5-.5s-.223-.5-.5-.5z" fill="#e6e9ed"/><path d="m24.027 46.47h-6.99c-.276 0-.5.224-.5.5s.224.5.5.5h6.99c.276 0 .5-.224.5-.5s-.223-.5-.5-.5z" fill="#e6e9ed"/><path d="m37 27.492c.276 0 .5-.224.5-.5v-5.999c0-.276-.224-.5-.5-.5h-7c-.276 0-.5.224-.5.5v5.999c0 .276.224.5.5.5zm-6.5-5.999h6v4.999h-6z" fill="#e6e9ed"/><path d="m55.008 61.006 2.002-1.001-2.002-1.001z" fill="#656d78"/></svg>