<svg xmlns="http://www.w3.org/2000/svg" width="246" height="246" viewBox="0 0 246 246" fill="none">
  <path d="M199.639 106.667V199.951C199.639 206.049 197.217 211.897 192.905 216.209C188.593 220.521 182.745 222.943 176.647 222.943H69.3522C63.2543 222.943 57.4063 220.521 53.0945 216.209C48.7827 211.897 46.3604 206.049 46.3604 199.951V46.6725C46.3604 40.5747 48.7827 34.7266 53.0945 30.4148C57.4063 26.103 63.2543 23.6807 69.3522 23.6807H116.653C120.717 23.6813 124.614 25.2956 127.488 28.1689L195.151 95.8318C198.024 98.7057 199.638 102.603 199.639 106.667Z" stroke="#4D4D4D" stroke-width="5.40984" stroke-linejoin="round"/>
  <path d="M123 27.5127V84.9922C123 89.0574 124.615 92.9561 127.489 95.8306C130.364 98.7052 134.263 100.32 138.328 100.32H195.807" fill="#00BF9D"/>
  <path d="M123 27.5127V84.9922C123 89.0574 124.615 92.9561 127.489 95.8306C130.364 98.7052 134.263 100.32 138.328 100.32H195.807" stroke="#4D4D4D" stroke-width="5.40984" stroke-linecap="round" stroke-linejoin="round"/>
  <path d="M72.5078 125.115H175.295" stroke="#4D4D4D" stroke-width="5.40984"/>
  <path d="M72.5078 146.754H175.295" stroke="#4D4D4D" stroke-width="5.40984"/>
  <path d="M72.5078 170.196H175.295" stroke="#4D4D4D" stroke-width="5.40984"/>
</svg>