<?xml version="1.0" encoding="iso-8859-1"?>
<!-- Generator: Adobe Illustrator 19.1.0, SVG Export Plug-In . SVG Version: 6.00 Build 0)  -->
<svg version="1.1" id="Capa_1" xmlns="http://www.w3.org/2000/svg" xmlns:xlink="http://www.w3.org/1999/xlink" x="0px" y="0px"
	 viewBox="0 0 468.068 468.068" style="enable-background:new 0 0 468.068 468.068;" xml:space="preserve">
<g>
	<g>
		<path d="M99.014,369.052c-21.744,0-39.924,15.482-44.102,36.007H0v18.003h54.912c4.18,20.523,22.359,36.004,44.102,36.004
			s39.922-15.481,44.101-36.004h324.953V405.06H143.115C138.937,384.534,120.758,369.052,99.014,369.052z M99.014,441.064
			c-14.888,0-27.004-12.116-27.004-27.004s12.116-27.004,27.004-27.004s27.004,12.116,27.004,27.004S113.902,441.064,99.014,441.064
			z"/>
		<path d="M315.046,189.027c-21.744,0-39.924,15.482-44.102,36.007H0v18.003h270.944c4.18,20.523,22.359,36.004,44.102,36.004
			c21.742,0,39.922-15.481,44.102-36.004h108.92v-18.003h-108.92C354.97,204.508,336.79,189.027,315.046,189.027z M315.046,261.038
			c-14.888,0-27.004-12.116-27.004-27.004s12.116-27.004,27.004-27.004s27.003,12.116,27.004,27.004
			C342.05,248.923,329.934,261.038,315.046,261.038z"/>
		<path d="M431.158,45.007C426.979,24.484,408.8,9.001,387.056,9.001c-21.744,0-39.924,15.482-44.102,36.006H0V63.01h342.954
			c4.18,20.523,22.359,36.004,44.102,36.004c21.744,0,39.923-15.48,44.102-36.004h36.91V45.007H431.158L431.158,45.007z
			 M387.056,81.012c-14.888,0-27.004-12.116-27.004-27.004s12.116-27.004,27.004-27.004S414.06,39.12,414.06,54.008
			S401.944,81.012,387.056,81.012z"/>
	</g>
</g>
<g>
</g>
<g>
</g>
<g>
</g>
<g>
</g>
<g>
</g>
<g>
</g>
<g>
</g>
<g>
</g>
<g>
</g>
<g>
</g>
<g>
</g>
<g>
</g>
<g>
</g>
<g>
</g>
<g>
</g>
</svg>
